<?xml version="1.0" encoding="UTF-8"?>
<svg id="logo" xmlns="http://www.w3.org/2000/svg" version="1.1" viewBox="0 0 1024 1024">
  <!-- Generator: Adobe Illustrator 30.6.0, SVG Export Plug-In . SVG Version: 2.1.4 Build 109)  -->
  <defs>
    <style>
      .st0 {
        fill: #fff;
      }

      .st1 {
        fill: #ffb833;
      }

      .st2 {
        fill: #ed2024;
      }

      .st3 {
        fill: #fdde7c;
      }

      .st4 {
        fill: #f47820;
      }
    </style>
  </defs>
  <path id="swatch-4b" class="st2" d="M512,512v512H212.6c-117.2,0-212.6-95.5-212.6-212.6v-299.4l13-158.4h486s13,158.4,13,158.4Z"/>
  <path id="swatch-1" class="st3" d="M512,512H0V212.6C0,95.5,95.5,0,212.6,0h299.4l158.4,13v486s-158.4,13-158.4,13Z"/>
  <path id="swatch-2" class="st1" d="M512,512V0h299.4c117.2,0,212.6,95.5,212.6,212.6v299.4l-13,158.4h-486s-13-158.4-13-158.4Z"/>
  <path id="swatch-3" class="st4" d="M512,512h512v299.4c0,117.2-95.5,212.6-212.6,212.6h-299.4l-158.4-13v-486s158.4-13,158.4-13Z"/>
  <path id="swatch-4a" class="st2" d="M512,512v512H212.6c-117.2,0-212.6-95.5-212.6-212.6v-299.4s512,0,512,0Z"/>
  <path class="st0" d="M412.7,753.7V248.9h99.3v81.3h2.3c9.3-27.7,25.6-49.4,48.8-65,23.2-15.7,49.5-23.5,79-23.5s13.5.2,21.7.7c8.1.5,14.9,1.1,20.3,2v96.3c-3.6-1.5-10.5-3.1-20.8-4.6-10.2-1.5-20.6-2.3-31.2-2.3-22.9,0-43.5,6.2-61.9,18.5-18.4,12.4-32.7,29.4-42.9,51.2-10.2,21.8-15.4,47-15.4,75.6v274.6h-99.3Z"/>
</svg>